<svg xmlns="http://www.w3.org/2000/svg" viewBox="0 0 48 48"><defs><style>.cls-1{fill:#65b1fc}.cls-2{fill:#fff}.cls-3{fill:#256494}</style></defs><title>30-Adventure games</title><g id="_30-Adventure_games" data-name="30-Adventure games"><path class="cls-1" d="M43 3V6H3V3A2.006 2.006.0 0 1 5 1H41a2.006 2.006.0 0 1 2 2z"/><path class="cls-2" d="M43 6V39L23 47 3 39V6H7V9 36l16 6 16-6V9 6h4z"/><path class="cls-1" d="M39 9V36L23 42 7 36V9 6H39V9z"/><path class="cls-2" d="M28 26v4H18V26h2 6 2z"/><path class="cls-2" d="M29 13v4H26 20 17V13h3 6 3z"/><path class="cls-2" d="M30 30v3H16V30h2H28h2z"/><path class="cls-2" d="M26 20v6H20V20 17h6v3z"/><path class="cls-2" d="M20 10h6v3H20z"/><path class="cls-3" d="M46 5H44V3a3 3 0 0 0-3-3H5A3 3 0 0 0 2 3V5H0V7H2V39a1 1 0 0 0 .629.929l20 8a1 1 0 0 0 .742.0l20-8A1 1 0 0 0 44 39V7h2zM4 3A1 1 0 0 1 5 2H41a1 1 0 0 1 1 1V5H4zM42 38.323l-19 7.6-19-7.6V7H42z"/><path class="cls-3" d="M6.648 36.937l16 6a1.015 1.015.0 0 0 .7.0l16-6A1 1 0 0 0 40 36V9H38V35.307l-14 5.25V36H22v4.557L8 35.307V9H6V36A1 1 0 0 0 6.648 36.937z"/><path class="cls-3" d="M17 18H29a1 1 0 0 0 1-1V13a1 1 0 0 0-1-1H27V10a1 1 0 0 0-1-1H20a1 1 0 0 0-1 1v2H17a1 1 0 0 0-1 1v4a1 1 0 0 0 1 1zm4-7h4v1H21zm-3 3H28v2H18z"/><path class="cls-3" d="M30 34h3V32H31V30a1 1 0 0 0-1-1H29V26a1 1 0 0 0-1-1H27V20H25v5H21V20H19v5H18a1 1 0 0 0-1 1v3H16a1 1 0 0 0-1 1v2H13v2H30zM19 27h8v2H19zm-2 4H29v1H17z"/><path class="cls-3" d="M10 9h2v2H10z"/><path class="cls-3" d="M34 9h2v2H34z"/></g></svg>