<svg id="Layer_1" xmlns="http://www.w3.org/2000/svg" xmlns:xlink="http://www.w3.org/1999/xlink" viewBox="0 0 512 512" style="enable-background:new 0 0 512 512"><circle style="fill:#5ac3ff" cx="255.998" cy="255.998" r="247.64"/><path style="fill:#46a2de" d="M353.244 432.842c-122.114.0-221.107-98.993-221.107-221.107.0-91.098 55.107-169.304 133.792-203.166-3.312-.132-6.628-.252-9.972-.252-136.768.0-247.64 110.872-247.64 247.64.0 136.767 110.872 247.64 247.64 247.64 78.002.0 147.54-36.098 192.933-92.46C419.945 425.046 387.505 432.842 353.244 432.842z"
	/><path style="fill:#a5ff7d" d="M499.879 212.997C480.858 105.124 394.668 26.026 291.913 10.979l16.833 20.557c2.004 2.448 2.483 5.806 1.239 8.716l-11.468 26.837c-1.185 2.775-4.952 3.178-6.7.719l-10.742-15.126c-1.684-2.371-4.458-3.721-7.362-3.585l-18.111.849-33.02 38.795c-3.133 3.681-.766 9.363 4.053 9.73l21.031 1.605 15.409-21.31 14.767 18.68-3.689 26.14c-.239 1.695-1.565 3.03-3.258 3.281l-33.409 4.949c-1.421.21-2.768.764-3.928 1.612l-32.927 24.108c-3.33 2.438-5.681 5.983-6.632 9.998l-3.17 13.386c-1.002 4.232-5.026 7.035-9.343 6.508l-14.903-1.817c-3.924-.479-7.664 1.798-9.039 5.503l-8.319 22.403c-1.731 4.661.87 9.809 5.648 11.181l18.774 5.391c4.769 1.37 9.823-.966 11.869-5.486l12.161-26.847c1.993-4.401 5.758-7.752 10.36-9.221l38.197-12.202 5.811-1.856 33.095 19.631c1.481.879 3.187 1.308 4.907 1.228 6.494-.298 12.972-.645 14.883-.918 3.117-.446 5.615-2.804 6.24-5.89l4.233-20.916c1.127-3.879 4.817-6.44 8.845-6.134l4.334.328c6.56.73 8.346-3.021 10.153-8.115l15.978 4.408c2.808.945 4.926 3.28 5.595 6.167l1.288 5.565c1.02 4.406-1.573 8.842-5.911 10.118l-38.536 11.327c-4.381 1.288-5.933 6.696-2.902 10.111l3.571 4.025c1.6 1.803 3.956 2.745 6.357 2.543l22.392-1.886c4.327-.365 8.24 2.577 9.091 6.836l1.138 5.691c2.005 10.034-5.199 19.567-15.4 20.375l-43.132 3.416c-4.898.388-8.258 5.2-6.802 9.892 1.868 6.021-3.856 11.614-9.823 9.625l-32.222-10.74c-4.287-1.429-7.425-5.124-8.138-9.587l-.011-.061c-.959-5.994-6.203-10.356-12.273-10.206l-30.479.753c-10.938.27-21.717 2.675-31.731 7.082l-10.62 4.674c-5.99 2.636-9.948 8.463-10.19 15.002l-.315 8.52-30.643 35.021c-2.724 3.113-4.225 7.11-4.225 11.247v37.502c0 6.949 2.824 13.6 7.823 18.427l26.914 25.986c4.229 4.083 9.734 6.587 15.59 7.093l80.706 6.967c4.998.431 8.638 4.93 8.015 9.909l-.472 3.772c-.763 6.106 1.818 12.152 6.755 15.824l19.763 14.695-3.055 9.839c-2.031 6.546.048 13.672 5.279 18.1l20.996 18.132c20.903-3.695 40.726-9.916 59.216-18.287l32.703-39.256c5.284-6.314 9.629-13.359 12.897-20.917l45.824-105.976c0 0-22.756 2.323-23.188 2.311l34.566-67.6c1.915-3.801.738-8.432-2.759-10.857l-6.046-4.192c-2.291-1.589-2.922-4.7-1.432-7.057l2.984-4.721c5.815-9.195 18.63-10.683 26.395-3.062l22.976 22.546C502.702 232.917 501.639 222.979 499.879 212.997z"/><g><path style="fill:#91e178" d="M119.125 79.622l46.011-22.862c8.057-4.004 15.828-8.561 23.255-13.641l11.526-7.882c3.741-2.558 4.943-7.532 2.783-11.516l-4.586-8.457c-27.557 6.6-53.035 17.624-75.78 32.22l-9.599 25.599C110.562 77.207 114.948 81.697 119.125 79.622z"/><path style="fill:#91e178" d="M353.244 432.842c-100.879.0-185.917-67.584-212.464-159.923l-25.766 29.446c-2.724 3.113-4.225 7.11-4.225 11.247v37.502c0 6.949 2.824 13.601 7.824 18.429l26.914 25.986c4.229 4.083 9.733 6.587 15.589 7.093l80.706 6.967c4.998.431 8.638 4.93 8.015 9.909l-.472 3.772c-.763 6.106 1.818 12.151 6.756 15.824l19.761 14.695-3.053 9.839c-2.031 6.546.046 13.672 5.279 18.1l20.98 18.117c1.236-.218 2.442-.515 3.672-.751 3.61-.693 7.209-1.408 10.752-2.251 2.092-.499 4.146-1.093 6.216-1.645 2.628-.698 5.26-1.387 7.848-2.166 2.568-.776 5.1-1.634 7.632-2.49 1.931-.65 3.866-1.295 5.772-1.989 2.962-1.085 5.891-2.235 8.798-3.429 1.32-.54 2.638-1.08 3.945-1.641 1.632-.703 3.228-1.47 4.842-2.207l32.457-38.961c3.763-4.495 6.859-9.467 9.618-14.624C385.368 431.03 369.521 432.842 353.244 432.842z"/></g><path d="M508.045 211.557c-11.871-67.323-49.248-125.995-105.248-165.206C346.798 7.142 278.883-7.916 211.558 3.955 144.234 15.827 85.563 53.204 46.352 109.202S-7.915 233.119 3.955 300.442c11.871 67.323 49.248 125.995 105.248 165.206C152.717 496.117 203.421 512 255.456 512c14.93.0 29.976-1.308 44.985-3.954 67.324-11.871 125.995-49.248 165.206-105.248S519.916 278.881 508.045 211.557zM491.714 214.437c.379 2.148.722 4.297 1.043 6.446l-6.682-6.557c-5.499-5.395-13.045-7.98-20.692-7.093-7.651.888-14.402 5.131-18.519 11.641l-2.281 3.606c-4.706-.342-9.491 1.289-13.043 4.79l-1.033 1.018-14.502-17.174c-2.955-3.499-8.185-3.939-11.684-.986-3.499 2.955-3.94 8.185-.986 11.684l20.281 24.017c1.49 1.764 3.649 2.828 5.957 2.933 2.295.101 4.554-.756 6.199-2.378l7.41-7.304c.085-.083.217-.094.315-.027l10.142 7.035c.101.07.136.206.08.315l-31.047 61.634-2.64.196c-2.848.21-5.632-.982-7.442-3.189l-39.92-48.652c-2.904-3.54-8.129-4.055-11.669-1.151s-4.055 8.129-1.151 11.669l39.919 48.652c5.23 6.376 13.263 9.815 21.488 9.208l15.926-1.18-40.872 94.517c-2.952 6.827-6.87 13.18-11.645 18.886l-31.773 37.959c-16.323 7.188-33.563 12.579-51.483 16.034l-17.944-15.59c-2.698-2.282-3.764-5.938-2.716-9.313l3.053-9.839c1.043-3.361-.148-7.012-2.972-9.112l-19.761-14.695c-2.535-1.886-3.868-5.005-3.476-8.141l1.612-12.891c.279-2.235-.364-4.491-1.781-6.242-1.417-1.751-3.488-2.852-5.733-3.046l-89.86-7.758c-3.949-.342-7.693-2.045-10.545-4.798l-26.914-25.982c-3.363-3.247-5.292-7.79-5.292-12.465v-37.501c0-2.129.773-4.184 2.173-5.786l30.644-35.021c1.253-1.432 1.976-3.251 2.045-5.153l.316-8.523c.124-3.341 2.181-6.371 5.242-7.717l24.29-10.687 45.407-1.121c1.932-.043 3.579 1.341 3.89 3.288 1.207 7.543 6.459 13.729 13.704 16.144l32.222 10.74c5.706 1.902 11.927.479 16.236-3.715 4.144-4.031 5.776-9.897 4.348-15.456l42.451-3.362c7.222-.573 13.869-4.215 18.237-9.995s6.057-13.168 4.637-20.272l-1.139-5.69c-1.679-8.4-9.385-14.192-17.916-13.472l-22.066 1.858-1.199-1.351 35.418-10.411c8.542-2.511 13.66-11.271 11.651-19.944l-1.288-5.565c-1.329-5.734-5.451-10.277-11.029-12.154l-7.958-2.679.418-1.102c1.624-4.282-.531-9.069-4.814-10.693-4.283-1.625-9.069.531-10.693 4.814l-4.853 12.8c-.039.102-.151.167-.25.159l-4.334-.328c-7.889-.6-15.227 4.487-17.434 12.09l-6.023 20.744-13.924.663-31.078-19.278c-2.062-1.279-4.582-1.591-6.894-.852l-44.008 14.058c-2.516.804-4.868 1.99-6.98 3.495.137-.425.258-.858.363-1.3l3.94-16.634 35.73-26.159 36.399-5.393c3.635-.538 6.482-3.405 6.995-7.043l4.092-28.998c.317-2.244-.3-4.522-1.705-6.299l-14.766-18.68c-1.625-2.055-4.123-3.228-6.744-3.146-2.619.075-5.048 1.383-6.551 3.529l-11.861 16.924-11.9-.97 27.068-31.9 14.51-.681c.081.001.165.035.213.104l14.733 20.746c1.737 2.447 4.669 3.76 7.645 3.444 2.984-.321 5.562-2.228 6.74-4.987l14.163-33.151c2.463-5.765 1.537-12.369-2.419-17.232l-2.392-2.942c28.5 6.966 55.747 19.241 80.5 36.573C445.656 96.606 480.612 151.476 491.714 214.437zM157.16 216.731c-.042-.012-.104-.03-.154-.126-.049-.097-.025-.158-.011-.199l8.32-22.403c.036-.097.129-.161.231-.161.01.0.021.001.031.002l14.902 1.818c3.521.43 6.931-.258 9.866-1.801-.075.158-.149.317-.222.478l-12.771 28.191L157.16 216.731zM234.408 188.818l21.214 26.024c.053.065.07.156.043.235l-2.579 7.625c-1.467 4.338.86 9.044 5.198 10.511.88.299 1.777.439 2.658.439 3.457.0 6.684-2.18 7.854-5.637l2.579-7.625c1.867-5.519.784-11.51-2.898-16.027l-16.382-20.096 28.848 17.894c.049.03.103.05.151.08l3.007 16.101c.744 3.988 4.228 6.771 8.141 6.771.505.0 1.017-.046 1.531-.143 4.502-.84 7.469-5.172 6.629-9.672l-2.333-12.489 6.092-.291 9.997 11.265c1.736 1.956 4.296 2.975 6.897 2.758l26.207-2.207c.129-.015.239.074.263.198l1.139 5.692c.5 2.496-.071 4.99-1.605 7.021-1.536 2.032-3.779 3.261-6.317 3.463l-43.134 3.416c-4.859.386-9.22 2.915-11.967 6.941-2.546 3.731-3.39 8.285-2.374 12.645l-31.229-10.41c-1.36-.453-2.347-1.615-2.583-3.091-1.581-9.882-10.2-17.192-20.162-17.192-.167.0-.335.002-.503.007l-33.834.835 10.274-22.68c1.024-2.261 2.967-3.99 5.331-4.745L234.408 188.818zM319.911 181.825l3.455-11.898c.031-.106.129-.178.238-.178.006.0.012.0.019.001l4.334.328c5.986.455 11.715-2.381 15.071-7.161l9.041 3.042c.083.028.144.095.163.179l1.288 5.564c.03.127-.046.256-.172.294L319.911 181.825zM195.42 28.266l-22.389 15.313-47.937 23.819 9.309-17.687c18.334-10.796 38.156-19.131 59.067-24.752L195.42 28.266zM118.715 452.064c-52.37-36.671-87.326-91.541-98.428-154.502s2.979-126.477 39.649-178.847c12.888-18.407 28.034-34.653 44.981-48.478-2.041 4.831-1.018 10.426 2.701 14.234 2.531 2.59 5.917 3.953 9.358 3.952 1.979.0 3.976-.45 5.838-1.376l58.112-28.874c.344-.17.674-.365.991-.582l29.265-20.015c3.602-2.463 4.678-7.298 2.462-11.055l-3.229-5.476c1.339-.259 2.677-.523 4.022-.76 14.043-2.476 28.104-3.699 42.071-3.699 10.425.0 20.794.688 31.052 2.039l14.751 18.141c.057.071.072.168.035.253l-8.348 19.54-6.163-8.68c-3.334-4.694-8.765-7.341-14.51-7.067l-18.111.849c-2.297.108-4.446 1.164-5.935 2.919L214.81 85.206c-3.061 3.608-3.837 8.565-2.025 12.936 1.812 4.371 5.867 7.325 10.583 7.71l15.951 1.3-.143 1.313c-.033.306-.05.611-.05.912.001 4.174 3.147 7.765 7.393 8.23 4.554.494 8.645-2.79 9.142-7.343l.837-7.669 6.976-9.954 5.66 7.161-2.731 19.348-32.297 4.785c-1.332.198-2.597.715-3.684 1.511l-39.85 29.176c-1.591 1.165-2.715 2.86-3.171 4.779l-4.643 19.608c-.029.123-.139.206-.272.189l-14.902-1.817c-7.763-.946-15.092 3.513-17.816 10.848l-8.32 22.403c-1.626 4.378-1.351 9.281.755 13.449 2.106 4.169 5.888 7.3 10.378 8.589l5.046 1.449-4.806 2.115c-8.838 3.888-14.779 12.635-15.135 22.282l-.208 5.583-28.706 32.808c-4.047 4.627-6.277 10.559-6.277 16.706v37.501c0 9.149 3.775 18.04 10.357 24.395l26.912 25.985c5.58 5.387 12.908 8.723 20.637 9.389l81.278 7.017-.543 4.343c-1.132 9.053 2.714 18.061 10.036 23.506l15.05 11.191-1.313 4.231c-3.024 9.743.054 20.297 7.761 26.817l7.115 6.182c-8.115.824-16.22 1.245-24.295 1.245C206.832 495.411 159.405 480.556 118.715 452.064zM452.065 393.285c-16.138 23.048-35.804 42.718-58.129 58.471l3.447-4.118c5.802-6.933 10.562-14.653 14.149-22.948l46.308-107.088c1.152-2.663.828-5.733-.853-8.097-1.682-2.364-4.472-3.677-7.369-3.463l-7.658.567 26.568-52.744c3.753-7.448 1.414-16.649-5.438-21.402l-3.613-2.506 1.403-2.218c1.426-2.255 3.764-3.725 6.414-4.032 2.656-.307 5.263.588 7.167 2.458l20.727 20.339C497.364 298.648 482.507 349.808 452.065 393.285z"/><path d="M181.241 152.171c2.051.0 4.106-.756 5.71-2.281l10.674-10.14c1.68-1.596 2.616-3.823 2.579-6.14l-.356-22.95c-.071-4.579-3.84-8.236-8.419-8.162-4.579.071-8.233 3.841-8.162 8.419l.3 19.314-8.038 7.636c-3.32 3.154-3.455 8.402-.301 11.722C176.858 151.306 179.047 152.171 181.241 152.171z"/><g/><g/><g/><g/><g/><g/><g/><g/><g/><g/><g/><g/><g/><g/><g/></svg>