<svg version="1.0" id="Layer_1" xmlns="http://www.w3.org/2000/svg" xmlns:xlink="http://www.w3.org/1999/xlink" width="100" height="100" viewBox="0 0 100 100" enable-background="new 0 0 100 100"><path d="M90 52.22V16.666C78.054 31.08 61.556 40 43.334 40v6.666C43.334 54.021 37.352 60 30 60s-13.334-5.979-13.334-13.334v-7.027C36.035 37.701 53.978 27.367 67.858 10h-8.764C45.898 24.531 28.756 33.334 10 33.334v13.332c0 11.042 8.953 20.001 20 20.001 6.807.0 13.473-.576 20-1.576v8.242c-4.127.0-8.252.681-12.18 2.041-5.042 1.738-10.598 1.742-15.643-.003C18.25 74.014 14.126 73.333 10 73.333V90h80V73.333c-2.233.0-4.466.219-6.667.615V55.394C85.586 54.395 87.813 53.34 90 52.22zM76.667 75.667c-4.73 1.367-9.818 1.318-14.489-.296-1.8-.622-3.646-1.084-5.511-1.423V63.899c6.871-1.419 13.561-3.34 20-5.781V75.667z"/></svg>