<svg xmlns="http://www.w3.org/2000/svg" xmlns:xlink="http://www.w3.org/1999/xlink" id="Layer_1" viewBox="0 0 512 512" style="enable-background:new 0 0 512 512"><path style="fill:#85c8eb" d="M456.23 275.434l5.253 11.773H351.18h.289-4.064v0H206.998l6.845-11.773H9.262v228.481h493.476V275.434H456.23z"/><g><path style="fill:#f25d4e" d="M424.985 39.021 346.639 63.004V15.038z"/><path style="fill:#f25d4e" d="M240.611 367.293h183.302c23.908-11.649 38.762-27.92 38.762-45.929H201.851C201.851 339.373 216.702 355.644 240.611 367.293z"/></g><g style="opacity:.1"><path style="fill:#231f20" d="M227.765 321.364h-25.914c0 18.009 14.85 34.281 38.76 45.929h25.916C242.617 355.644 227.765 339.373 227.765 321.364z"/></g><path style="fill:#f5f5f5" d="M206.998 287.207H346.639V83.126H324.986z"/><g style="opacity:.1"><path style="fill:#231f20" d="M346.639 83.126H324.986L206.998 287.207H233.676L346.639 91.819z"/></g><path style="fill:#f5f5f5" d="M351.18 287.207H461.483L370.439 83.126H356.179"/><path style="fill:#b8e5f4" d="M238.202 234.39l-.369-.29c-3.602-12.629-15.217-21.878-29.002-21.878-3.523.0-6.901.61-10.044 1.719-.581-26.13-21.931-47.135-48.2-47.135-23.692.0-43.381 17.09-47.445 39.614-6.973-6.862-16.531-11.097-27.084-11.097-20.438.0-37.156 15.877-38.515 35.969-1.859-.498-3.803-.788-5.818-.788-12.407.0-22.463 10.058-22.463 22.465.0 12.407 10.057 22.464 22.463 22.464h181.96L238.202 234.39z"/><g><path style="fill:#231f20" d="M132.595 241.352c-4.466.0-8.084-3.62-8.084-8.084.0-9.448-7.686-17.134-17.134-17.134-6.902.0-13.1 4.11-15.79 10.469-1.74 4.111-6.487 6.032-10.596 4.294-4.111-1.74-6.035-6.484-4.294-10.596 5.228-12.354 17.27-20.336 30.681-20.336 18.363.0 33.304 14.939 33.304 33.303C140.679 237.734 137.059 241.352 132.595 241.352z"/><path style="fill:#231f20" d="M181.92 321.364c0-4.466-3.618-8.084-8.084-8.084H46.333c-4.466.0-8.084 3.618-8.084 8.084.0 4.466 3.618 8.084 8.084 8.084h127.503C178.302 329.448 181.92 325.828 181.92 321.364z"/><path style="fill:#231f20" d="M473.156 413.221c0-4.466-3.618-8.084-8.084-8.084H46.333c-4.466.0-8.084 3.618-8.084 8.084s3.618 8.084 8.084 8.084h418.738C469.537 421.305 473.156 417.686 473.156 413.221z"/><path style="fill:#231f20" d="M502.737 267.35h-41.261L377.821 79.832c-1.3-2.914-4.193-4.79-7.384-4.79h-14.258c-.498.0-.984.052-1.457.138v-6.196l72.63-22.233c3.398-1.04 5.718-4.177 5.718-7.731.0-3.554-2.32-6.69-5.718-7.731L354.723 9.058V8.084c0-4.466-3.618-8.084-8.084-8.084-4.465.0-8.084 3.618-8.084 8.084v6.953 47.966 12.038h-13.569c-2.887.0-5.553 1.539-6.999 4.038l-80.078 138.509c-7.123-8.312-17.676-13.451-29.077-13.451-.996.0-1.988.038-2.975.114-2.15-11.137-7.619-21.36-15.878-29.452-10.582-10.368-24.572-16.078-39.391-16.078-23.037.0-43.241 13.888-51.872 34.364-6.858-3.817-14.609-5.848-22.657-5.848-21.611.0-40.094 14.905-45.255 35.194-16.418.489-29.626 13.999-29.626 30.536.0 5.609 1.526 10.866 4.176 15.389-2.489 1.378-4.176 4.028-4.176 7.075v228.482c0 4.466 3.618 8.084 8.084 8.084h493.476c4.466.0 8.084-3.618 8.084-8.084V275.434C510.821 270.97 507.203 267.35 502.737 267.35zM494.653 283.519v75.69h-43.441c12.75-11.138 19.549-24.092 19.549-37.845.0-4.466-3.618-8.084-8.084-8.084H354.685c.023-.245.038-.492.038-.742v-17.245h106.76c2.739.0 5.29-1.386 6.782-3.684 1.491-2.297 1.717-5.192.601-7.694l-.176-.395h25.962V283.519zM304.034 359.208h-61.526c-16.622-8.416-27.529-18.911-31.2-29.761H453.22c-3.671 10.85-14.579 21.344-31.202 29.761h-12.347H304.034zM365.193 91.21l83.65 187.507c.001.003.002.006.003.01l.177.395h-94.301V91.072c.473.086.958.138 1.457.138C356.18 91.21 365.193 91.21 365.193 91.21zM397.366 39.021l-42.645 13.053V25.968L397.366 39.021zM329.65 91.21h8.904v187.913H221.036c.031-.06.052-.124.081-.185l3.256-5.632 20.769-34.77c.558-.935.895-1.942 1.046-2.963L329.65 91.21zM31.725 238.59c1.202.0 2.455.172 3.727.514 2.334.623 4.826.172 6.794-1.234 1.966-1.407 3.2-3.617 3.363-6.03 1.08-15.943 14.455-28.432 30.451-28.432 8.059.0 15.664 3.116 21.413 8.775 2.136 2.102 5.262 2.851 8.117 1.943 2.856-.908 4.977-3.32 5.509-6.27 3.446-19.101 20.052-32.964 39.489-32.964 21.64.0 39.637 17.599 40.118 39.231.058 2.591 1.354 4.998 3.486 6.472 2.132 1.472 4.842 1.836 7.287.971 2.365-.834 4.839-1.258 7.353-1.258 8.682.0 16.505 5.164 20.056 12.885l-18.464 31.937-1.327 2.22H31.725c-7.928.0-14.379-6.45-14.379-14.38C17.346 245.041 23.796 238.59 31.725 238.59zM17.346 495.832v-28.597h59.973c4.466.0 8.084-3.618 8.084-8.084.0-4.466-3.618-8.084-8.084-8.084H17.346v-75.69h130.621c4.466.0 8.084-3.618 8.084-8.084.0-4.466-3.618-8.084-8.084-8.084H17.346v-75.69h14.379 168.08c-.054.105-.092.215-.14.321-.068.149-.137.298-.196.448-.067.172-.122.347-.177.523-.047.153-.097.305-.135.46-.044.181-.075.363-.108.545-.027.154-.057.307-.075.462-.022.189-.028.377-.037.567-.006.151-.019.301-.017.452.002.197.022.393.038.59.012.143.017.286.037.428.029.21.078.418.123.626.028.126.046.253.08.377.066.243.153.481.241.718.032.086.055.176.091.262.133.32.286.635.461.94.001.002.003.004.004.007.0.0.0.001.001.001.041.071.093.133.136.203.146.236.293.47.46.688.097.126.209.236.313.356.128.148.249.303.387.44.139.139.294.259.442.387.117.101.226.211.349.305.168.128.349.237.527.352.115.075.224.161.344.23.199.115.411.208.619.306.108.051.21.112.32.158.211.087.431.152.649.222.116.037.227.086.346.119.288.079.584.132.882.178.053.009.103.025.157.031.352.047.71.071 1.073.071h131.556v17.245c0 .25.015.497.038.742H201.851c-4.466.0-8.084 3.618-8.084 8.084.0 13.754 6.797 26.708 19.545 37.845h-37.187c-4.466.0-8.084 3.618-8.084 8.084s3.618 8.084 8.084 8.084h64.486 63.423 105.636 14.244 70.739v75.69H105.329c-4.466.0-8.084 3.618-8.084 8.084s3.618 8.084 8.084 8.084h389.325v28.598H17.346z"/></g><g style="opacity:.1"><path style="fill:#231f20" d="M17.354 275.434h17.246v223.038H17.354z"/></g><g/><g/><g/><g/><g/><g/><g/><g/><g/><g/><g/><g/><g/><g/><g/></svg>